# xmcd
#
# Track frame offsets:
#	150
#	12824
#	24511
#	35447
#	47468
#	59624
#	71927
#	81668
#	92149
#	104963
#	116164
#	130128
#	143659
#	155746
#	168076
#	182252
#	193256
#	203880
#	217014
#	234052
#
# Disc length: 3315 seconds
#
# Revision: 1
# Processed by: cddbd v1.5.2PL0 Copyright (c) Steve Scherf et al.
# Submitted via: audiograbber 1.83.01
#
DISCID=220cf114
DTITLE=The Greatest Country Music Recordings Of All Time - Record 11 and 12
DYEAR=1900
DGENRE=
TTITLE0=George Jones - White Lightning
TTITLE1=George Jones - Window Up Above
TTITLE2=George Jones - Tender Years
TTITLE3=George Jones - She Thinks I Still Care
TTITLE4=George Jones with Melba Montgomery - We Must Have Been Out Of Our Minds
TTITLE5=George Jones - You Comb Her Hair
TTITLE6=George Jones - The Race Is On
TTITLE7=George Jones - Walk Through This World With Me
TTITLE8=George Jones - I'll Share My World With Me
TTITLE9=George Jones - I Can't Get There From Here
TTITLE10=George Jones - Loving You Could Never Be Better
TTITLE11=George Jones with Tammy Wynette - We're Gonna Hold On
TTITLE12=George Jones - Once You've Had The Best
TTITLE13=George Jones - The Door
TTITLE14=George Jones - The Grand Tour
TTITLE15=George Jones with Tammy Wynette - Near You
TTITLE16=George Jones - Her Name Is
TTITLE17=George Jones with Tammy Wynette - Southern California
TTITLE18=George Jones with James Taylor - Bartender Blues
TTITLE19=George Jones - He Stopped Loving Her Today
EXTD=
EXTT0=
EXTT1=
EXTT2=
EXTT3=
EXTT4=
EXTT5=
EXTT6=
EXTT7=
EXTT8=
EXTT9=
EXTT10=
EXTT11=
EXTT12=
EXTT13=
EXTT14=
EXTT15=
EXTT16=
EXTT17=
EXTT18=
EXTT19=
PLAYORDER=
